<svg aria-hidden="true" style="position: absolute; width: 0; height: 0; overflow: hidden;" version="1.1" xmlns="http://www.w3.org/2000/svg" xmlns:xlink="http://www.w3.org/1999/xlink">
<defs>
<symbol id="icon-person_outline" viewBox="0 0 24 24">
<path d="M12 12.984q1.5 0 3.281 0.422t3.258 1.406 1.477 2.203v3h-16.031v-3q0-1.219 1.477-2.203t3.258-1.406 3.281-0.422zM12 3.984q1.641 0 2.813 1.195t1.172 2.836-1.172 2.813-2.813 1.172-2.813-1.172-1.172-2.813 1.172-2.836 2.813-1.195zM12 14.906q-2.063 0-4.078 0.773t-2.016 1.336v1.078h12.188v-1.078q0-0.563-2.016-1.336t-4.078-0.773zM12 5.906q-0.891 0-1.5 0.609t-0.609 1.5 0.609 1.477 1.5 0.586 1.5-0.586 0.609-1.477-0.609-1.5-1.5-0.609z" fill="#024060"></path>
</symbol>
<symbol id="icon-help-circle" viewBox="0 0 24 24">
<path d="M23 12c0-3.037-1.232-5.789-3.222-7.778s-4.741-3.222-7.778-3.222-5.789 1.232-7.778 3.222-3.222 4.741-3.222 7.778 1.232 5.789 3.222 7.778 4.741 3.222 7.778 3.222 5.789-1.232 7.778-3.222 3.222-4.741 3.222-7.778zM21 12c0 2.486-1.006 4.734-2.636 6.364s-3.878 2.636-6.364 2.636-4.734-1.006-6.364-2.636-2.636-3.878-2.636-6.364 1.006-4.734 2.636-6.364 3.878-2.636 6.364-2.636 4.734 1.006 6.364 2.636 2.636 3.878 2.636 6.364zM10.033 9.332c0.183-0.521 0.559-0.918 1.022-1.14s1.007-0.267 1.528-0.083c0.458 0.161 0.819 0.47 1.050 0.859 0.183 0.307 0.284 0.665 0.286 1.037 0 0.155-0.039 0.309-0.117 0.464-0.080 0.16-0.203 0.325-0.368 0.49-0.709 0.709-1.831 1.092-1.831 1.092-0.524 0.175-0.807 0.741-0.632 1.265s0.741 0.807 1.265 0.632c0 0 1.544-0.506 2.613-1.575 0.279-0.279 0.545-0.614 0.743-1.010 0.2-0.4 0.328-0.858 0.328-1.369-0.004-0.731-0.204-1.437-0.567-2.049-0.463-0.778-1.19-1.402-2.105-1.724-1.042-0.366-2.135-0.275-3.057 0.167s-1.678 1.238-2.044 2.28c-0.184 0.521 0.090 1.092 0.611 1.275s1.092-0.091 1.275-0.611zM12 18c0.552 0 1-0.448 1-1s-0.448-1-1-1-1 0.448-1 1 0.448 1 1 1z"></path>
</symbol>
<symbol id="icon-logo" viewBox="0 0 400 400" fill="none" xmlns="http://www.w3.org/2000/svg">
<path d="M172.496 0C77.2301 0 0 77.2383 0 172.504C0 267.77 77.2301 345 172.496 345C267.762 345 344.992 267.762 344.992 172.504C345 77.2383 267.77 0 172.496 0ZM221.335 262.724C217.713 269.21 212.502 274.964 205.851 279.805C193.067 289.098 176.661 293.749 160.255 293.749C143.849 293.749 127.444 289.107 114.652 279.805L102.32 270.84L117.434 250.055L129.765 259.02C146.294 271.03 174.216 271.038 190.737 259.02C197.487 254.113 201.2 247.973 201.2 241.733C201.2 235.502 197.487 229.361 190.737 224.446L102.32 160.132L117.434 139.347L205.851 203.661C212.502 208.501 217.721 214.247 221.335 220.75C225.023 227.369 226.899 234.44 226.899 241.741C226.891 249.035 225.023 256.089 221.335 262.724ZM155.761 109.721L244.178 174.035L229.064 194.82L140.639 130.506C133.988 125.666 128.777 119.92 125.163 113.417C121.467 106.79 119.599 99.7274 119.599 92.4259C119.599 85.1325 121.476 78.0697 125.163 71.4432C128.777 64.9566 133.996 59.2026 140.639 54.3623C166.215 35.7669 206.271 35.7669 231.847 54.3623L244.178 63.3267L229.064 84.1118L216.733 75.1557C200.204 63.1374 172.282 63.1374 155.761 75.1557C149.011 80.0618 145.29 86.2027 145.29 92.4423C145.29 98.6737 149.011 104.815 155.761 109.721Z" fill="#024060"/>
</symbol>
<symbol id="icon-envelope" viewBox="0 0 32 32">
<path d="M29 4h-26c-1.657 0-3 1.343-3 3v18c0 1.656 1.343 3 3 3h26c1.657 0 3-1.344 3-3v-18c0-1.657-1.343-3-3-3zM2.741 25.99l-0.731-0.732 8.249-8.248 0.731 0.732-8.249 8.248zM29.259 25.99l-8.249-8.248 0.731-0.732 8.249 8.248-0.731 0.732zM17 19.325v0.675h-2v-0.675l-12.997-12.050 1.272-1.272 12.725 11.798 12.725-11.798 1.272 1.272-12.997 12.050z"></path>
</symbol>
<symbol id="icon-lock" viewBox="0 0 32 32">
<path d="M15 21.915v0c-0.583-0.206-1-0.762-1-1.415 0-0.828 0.672-1.5 1.5-1.5s1.5 0.672 1.5 1.5c0 0.653-0.417 1.209-1 1.415v2.594c0 0.263-0.224 0.491-0.5 0.491-0.268 0-0.5-0.22-0.5-0.491v-2.594zM8 14v0 0c-1.658 0.005-3 1.34-3 3.009v9.981c0 1.662 1.346 3.009 3.009 3.009h14.982c1.662 0 3.009-1.337 3.009-3.009v-9.981c0-1.659-1.341-3.005-3-3.009v-3.501c0-4.142-3.366-7.499-7.5-7.499-4.142 0-7.5 3.357-7.5 7.499v3.501zM11 14v-3.499c0-2.492 2.015-4.501 4.5-4.501 2.48 0 4.5 2.015 4.5 4.501v3.499h-9z"></path>
</symbol>
<symbol id="icon-question" viewBox="0 0 36 36" fill="none" xmlns="http://www.w3.org/2000/svg">
<path fill-rule="evenodd" clip-rule="evenodd" d="M18 33.8313C26.7434 33.8313 33.8313 26.7434 33.8313 18C33.8313 9.2566 26.7434 2.16867 18 2.16867C9.2566 2.16867 2.16867 9.2566 2.16867 18C2.16867 26.7434 9.2566 33.8313 18 33.8313ZM18 36C27.9411 36 36 27.9411 36 18C36 8.05888 27.9411 0 18 0C8.05888 0 0 8.05888 0 18C0 27.9411 8.05888 36 18 36Z" fill="#011722"/>
<path d="M16.1438 22.5343C16.1612 21.501 16.2784 20.6848 16.4955 20.0856C16.7126 19.4865 17.1554 18.8222 17.824 18.0929L19.5302 16.3345C20.2596 15.5096 20.6243 14.6239 20.6243 13.6775C20.6243 12.7657 20.3855 12.0537 19.908 11.5414C19.4304 11.0204 18.7357 10.7599 17.824 10.7599C16.9383 10.7599 16.2263 10.9944 15.6879 11.4632C15.1496 11.9321 14.8804 12.5617 14.8804 13.3518H12.4708C12.4882 11.9452 12.9875 10.812 13.9687 9.95238C14.9586 9.08406 16.2437 8.6499 17.824 8.6499C19.4651 8.6499 20.7415 9.09274 21.6533 9.97843C22.5737 10.8554 23.0339 12.0624 23.0339 13.5993C23.0339 15.1189 22.3306 16.6167 20.9239 18.0929L19.5042 19.4995C18.8703 20.2029 18.5534 21.2144 18.5534 22.5343H16.1438ZM16.0396 26.6631C16.0396 26.2724 16.1568 25.9468 16.3913 25.6863C16.6344 25.4171 16.9904 25.2825 17.4593 25.2825C17.9282 25.2825 18.2842 25.4171 18.5273 25.6863C18.7705 25.9468 18.892 26.2724 18.892 26.6631C18.892 27.0539 18.7705 27.3795 18.5273 27.64C18.2842 27.8918 17.9282 28.0177 17.4593 28.0177C16.9904 28.0177 16.6344 27.8918 16.3913 27.64C16.1568 27.3795 16.0396 27.0539 16.0396 26.6631Z" fill="#011722"/>
</symbol>
<svg id="icon-user" width="21" height="23" viewBox="0 0 21 23" fill="none" xmlns="http://www.w3.org/2000/svg">
<path d="M10.2956 0C7.0099 0 4.32397 2.68593 4.32397 5.97166C4.32397 9.2574 7.0099 11.9433 10.2956 11.9433C13.5814 11.9433 16.2673 9.2574 16.2673 5.97166C16.2673 2.68593 13.5814 0 10.2956 0Z" fill="#011722"/>
<path d="M20.5438 16.7155C20.3873 16.3244 20.1787 15.9593 19.944 15.6203C18.7445 13.847 16.893 12.6736 14.8069 12.3867C14.5461 12.3606 14.2593 12.4128 14.0506 12.5692C12.9554 13.3776 11.6516 13.7949 10.2955 13.7949C8.93947 13.7949 7.63563 13.3776 6.54039 12.5692C6.33175 12.4128 6.0449 12.3345 5.78415 12.3867C3.69798 12.6736 1.82045 13.847 0.646988 15.6203C0.412297 15.9593 0.20366 16.3505 0.0472316 16.7155C-0.0309824 16.872 -0.0049277 17.0545 0.0732863 17.211C0.281923 17.5761 0.54267 17.9412 0.777362 18.2541C1.14243 18.7496 1.5336 19.1929 1.97693 19.6101C2.34199 19.9752 2.75922 20.3142 3.17649 20.6532C5.23656 22.1917 7.7139 23.0001 10.2695 23.0001C12.825 23.0001 15.3024 22.1917 17.3624 20.6532C17.7796 20.3403 18.1969 19.9752 18.562 19.6101C18.9792 19.1929 19.3964 18.7495 19.7615 18.2541C20.0223 17.9151 20.257 17.5761 20.4656 17.211C20.5959 17.0545 20.622 16.872 20.5438 16.7155Z" fill="#011722"/>
</svg>
<symbol id="icon-facebook-square" viewBox="0 0 24 28">
<path d="M19.5 2c2.484 0 4.5 2.016 4.5 4.5v15c0 2.484-2.016 4.5-4.5 4.5h-2.938v-9.297h3.109l0.469-3.625h-3.578v-2.312c0-1.047 0.281-1.75 1.797-1.75l1.906-0.016v-3.234c-0.328-0.047-1.469-0.141-2.781-0.141-2.766 0-4.672 1.687-4.672 4.781v2.672h-3.125v3.625h3.125v9.297h-8.313c-2.484 0-4.5-2.016-4.5-4.5v-15c0-2.484 2.016-4.5 4.5-4.5h15z"></path>
</symbol>
<symbol id="icon-twitter" viewBox="0 0 26 28">
<path d="M25.312 6.375c-0.688 1-1.547 1.891-2.531 2.609 0.016 0.219 0.016 0.438 0.016 0.656 0 6.672-5.078 14.359-14.359 14.359-2.859 0-5.516-0.828-7.75-2.266 0.406 0.047 0.797 0.063 1.219 0.063 2.359 0 4.531-0.797 6.266-2.156-2.219-0.047-4.078-1.5-4.719-3.5 0.313 0.047 0.625 0.078 0.953 0.078 0.453 0 0.906-0.063 1.328-0.172-2.312-0.469-4.047-2.5-4.047-4.953v-0.063c0.672 0.375 1.453 0.609 2.281 0.641-1.359-0.906-2.25-2.453-2.25-4.203 0-0.938 0.25-1.797 0.688-2.547 2.484 3.062 6.219 5.063 10.406 5.281-0.078-0.375-0.125-0.766-0.125-1.156 0-2.781 2.25-5.047 5.047-5.047 1.453 0 2.766 0.609 3.687 1.594 1.141-0.219 2.234-0.641 3.203-1.219-0.375 1.172-1.172 2.156-2.219 2.781 1.016-0.109 2-0.391 2.906-0.781z"></path>
</symbol>
<symbol id="icon-linkedin-square" viewBox="0 0 24 28">
<path d="M3.703 22.094h3.609v-10.844h-3.609v10.844zM7.547 7.906c-0.016-1.062-0.781-1.875-2.016-1.875s-2.047 0.812-2.047 1.875c0 1.031 0.781 1.875 2 1.875h0.016c1.266 0 2.047-0.844 2.047-1.875zM16.688 22.094h3.609v-6.219c0-3.328-1.781-4.875-4.156-4.875-1.937 0-2.797 1.078-3.266 1.828h0.031v-1.578h-3.609s0.047 1.016 0 10.844v0h3.609v-6.062c0-0.313 0.016-0.641 0.109-0.875 0.266-0.641 0.859-1.313 1.859-1.313 1.297 0 1.813 0.984 1.813 2.453v5.797zM24 6.5v15c0 2.484-2.016 4.5-4.5 4.5h-15c-2.484 0-4.5-2.016-4.5-4.5v-15c0-2.484 2.016-4.5 4.5-4.5h15c2.484 0 4.5 2.016 4.5 4.5z"></path>
</symbol>
<symbol id="icon-pinterest-p" viewBox="0 0 20 28">
<path d="M0 9.328c0-5.766 5.281-9.328 10.625-9.328 4.906 0 9.375 3.375 9.375 8.547 0 4.859-2.484 10.25-8.016 10.25-1.313 0-2.969-0.656-3.609-1.875-1.188 4.703-1.094 5.406-3.719 9l-0.219 0.078-0.141-0.156c-0.094-0.984-0.234-1.953-0.234-2.938 0-3.187 1.469-7.797 2.188-10.891-0.391-0.797-0.5-1.766-0.5-2.641 0-1.578 1.094-3.578 2.875-3.578 1.313 0 2.016 1 2.016 2.234 0 2.031-1.375 3.938-1.375 5.906 0 1.344 1.109 2.281 2.406 2.281 3.594 0 4.703-5.187 4.703-7.953 0-3.703-2.625-5.719-6.172-5.719-4.125 0-7.313 2.969-7.313 7.156 0 2.016 1.234 3.047 1.234 3.531 0 0.406-0.297 1.844-0.812 1.844-0.078 0-0.187-0.031-0.266-0.047-2.234-0.672-3.047-3.656-3.047-5.703z"></path>
</symbol>
<svg id="icon-instagram" viewBox="0 0 24 24" width="32px" height="32px">
<path d="M 8 3 C 5.239 3 3 5.239 3 8 L 3 16 C 3 18.761 5.239 21 8 21 L 16 21 C 18.761 21 21 18.761 21 16 L 21 8 C 21 5.239 18.761 3 16 3 L 8 3 z M 18 5 C 18.552 5 19 5.448 19 6 C 19 6.552 18.552 7 18 7 C 17.448 7 17 6.552 17 6 C 17 5.448 17.448 5 18 5 z M 12 7 C 14.761 7 17 9.239 17 12 C 17 14.761 14.761 17 12 17 C 9.239 17 7 14.761 7 12 C 7 9.239 9.239 7 12 7 z M 12 9 A 3 3 0 0 0 9 12 A 3 3 0 0 0 12 15 A 3 3 0 0 0 15 12 A 3 3 0 0 0 12 9 z"/>
</svg>
</defs>
</svg>
